<svg enable-background="new 0 0 384.8 338.4" height="296.463531" viewBox="0 0 384.8 338.4" width="337.309617" xmlns="http://www.w3.org/2000/svg" xmlns:xlink="http://www.w3.org/1999/xlink"><linearGradient id="a" gradientUnits="userSpaceOnUse" x1="192.3775" x2="192.3775" y1="330.2489" y2="8.1641"><stop offset=".00000034098" stop-color="#582a7c"/><stop offset=".5" stop-color="#92459a"/><stop offset="1" stop-color="#c8b1d5"/></linearGradient><clipPath id="b"><path d="m358.8 158.9v1.6 18.9l18.5-10.2z"/></clipPath><clipPath id="c"><path d="m241 202c0-.5-.1-1-.5-1.4-.5-.5-1.5-.6-3.9-.6h-8.9v4.1h8.9c1.9 0 3.2-.1 3.9-.8.3-.4.5-.9.5-1.3z"/></clipPath><clipPath id="d"><path d="m93.3 171.6h-20.3v7.8h21.2c5 0 6.9-.4 7.8-1.4.8-.8.9-1.7.9-2.6 0-1-.3-1.7-.8-2.3-.8-.7-2.4-1.5-8.8-1.5z"/></clipPath><clipPath id="e"><path d="m101.9 164.7c.5-.5.8-1.3.8-2.2s-.1-1.5-.8-2.2c-.9-.9-2.7-1.4-8-1.4h-20.9v7.3h20.3c6.2.1 7.6-.4 8.6-1.5z"/></clipPath><clipPath id="f"><path d="m89.6 8.2-75.8 148.1c3.5-2.2 9.1-3.7 18.4-3.7 11.8 0 17.7 2.6 20.8 5.6 2.7 2.7 4.1 6.3 4.1 11s-1.3 8.2-4.1 11c-3.1 3.1-9 5.6-20.8 5.6-9.3 0-14.9-1.5-18.4-3.7l75.8 148.1 259.4-145.3-29-25.9v25.9h-7v-31.5h10.3l28.5 25.4v-22.2-1.7zm159.2 145.2v31.5h-7.1v-31.5zm-15 15.7c0 4.3-1.3 7.9-4.1 10.7-2.4 2.4-7.5 5-18.4 5h-23.1v-31.4h23.1c10.8 0 15.8 2.6 18.4 5 2.8 2.8 4.1 6.3 4.1 10.7zm-125.4 12.4c-1.9 1.9-5.3 3.4-14.4 3.4h-27.9v-31.5h28.1c8.6 0 11.6 1 13.6 3.2 1.5 1.5 1.9 3.2 1.9 5.1 0 4.1-2.6 6.3-7.2 7.2 4.9.9 7.6 2.9 7.6 7.2.2 1.9-.2 3.8-1.7 5.4zm9.6.5v-5.9c4.8 2.3 14.8 4.1 22.2 4.1 8.9 0 11.7-.8 13-1.9.6-.6.9-1.4.9-2.2 0-.9-.3-1.7-.8-2.2-1-1-2.8-1.4-14-2-12.6-.6-16.4-1.7-18.6-3.8-1.3-1.3-1.8-3.1-1.8-5.2 0-2.3.5-4.5 2.2-6.1 2.2-2.2 6.6-3.7 17.7-3.7 8.9 0 15.5 1.3 19.7 2.9v5.9c-4.8-2-12.7-3.4-19.7-3.4-8.6 0-11.2.8-12.2 1.8-.5.5-.8 1.3-.8 2.2 0 .8.3 1.5.6 1.9.9.9 3.1 1.5 13.4 2 13.4.6 17.1 1.7 19.3 3.8 1.3 1.3 1.9 3.2 1.9 5.5s-.5 4.5-2.2 6.3c-2.3 2.3-6.8 4-18.6 4-8.7-.4-17.3-1.9-22.2-4zm49.1 18h-15.8v2.9h15.4v2.6h-15.4v3.1h15.8v2.8h-19.4v-14.2h19.4zm3.4-46.6h7.1v31.5h-7.1zm23.9 58h-5.8l-12.8-11.9v11.9h-3.6v-14.2h6l12.6 11.7v-11.7h3.6zm24.6-11.4h-15.8v2.9h15.4v2.6h-15.4v3.1h15.8v2.8h-19.4v-14.2h19.4zm21.4 11.5v-.1l-7.1-4.7h-.1-5.7v4.7h-3.7v-14.2h12.6c4.5 0 5.9.5 6.8 1.5.8.8 1.2 1.8 1.2 3.2s-.4 2.4-1.2 3.2c-.9.9-2.2 1.3-4.4 1.5l-.8.1 7.5 4.7h-5.1zm30.2-6.4h-.1c0 2.2-.4 3.6-1.4 4.5-1.7 1.7-4.4 2.3-9.1 2.3-5 0-8.2-.8-9.9-2.6-1.3-1.3-1.9-2.9-1.9-5.1s.6-3.8 1.9-5.1c1.7-1.7 5-2.6 10-2.6 3.7 0 6.7.4 9.3 1.1v2.9c-2.6-.9-5.7-1.4-9.3-1.4-4.4 0-6.2.9-6.9 1.5-.8.8-1.2 1.9-1.2 3.3s.4 2.4 1.2 3.2c1.2 1.1 3.5 1.7 6.9 1.7 3.6 0 5.7-.4 6.6-1.3.4-.4.6-1 .6-1.8v-.3h-9.1v-2.4h12.5v2.1zm15.2.5v5.6h-3.7v-5.6l-9.8-8.6h4.9l6.8 6.1 6.8-6.1h4.6zm14-20.7-5-7.4h-27.6l-5 7.4h-7.7l22.1-31.7h9.5l22.1 31.7z"/></clipPath><clipPath id="g"><path d="m47.3 176.4c1.7-1.7 2.6-3.7 2.6-7.3s-1-5.6-2.7-7.3c-2.1-2-6.6-3.8-15-3.8-8.5 0-13 1.7-15 3.7-1.8 1.8-2.7 3.8-2.7 7.3 0 3.6.9 5.5 2.7 7.3 2.1 2.2 6.6 4 15 4 8.4-.1 12.9-1.8 15.1-3.9z"/></clipPath><clipPath id="h"><path d="m224.3 176.2c1.5-1.7 2.4-4 2.4-7 0-3.2-.8-5.4-2.4-7-1.8-1.8-5.7-3.1-13-3.1h-16.1v20.2h16.1c7.4 0 11.3-1.4 13-3.1z"/></clipPath><clipPath id="i"><path d="m270.9 171.9h20l-10-14.7z"/></clipPath><path d="m89.6 330.2-75.8-148.1-6.3-13 6.3-12.8 75.8-148.1 262.2 146.7 7 4 18.5 10.3-18.5 10.2-9.8 5.5z" fill="url(#a)"/><g fill="#fff"><path d="m161 175.6c0-2.3-.6-4.2-1.9-5.5-2.2-2.2-5.9-3.2-19.3-3.8-10.3-.5-12.5-1.1-13.4-2-.4-.4-.6-1.1-.6-1.9 0-.9.3-1.7.8-2.2 1-1 3.6-1.8 12.2-1.8 6.9 0 14.9 1.4 19.7 3.4v-5.9c-4.1-1.7-10.8-2.9-19.7-2.9-11.2 0-15.5 1.5-17.7 3.7-1.7 1.7-2.2 3.8-2.2 6.1 0 2.2.5 4 1.8 5.2 2.2 2.2 6 3.2 18.6 3.8 11.2.6 13 1 14 2 .5.5.8 1.3.8 2.2 0 .8-.3 1.5-.9 2.2-1.3 1.1-4.1 1.9-13 1.9-7.5 0-17.5-1.8-22.2-4.1v5.9c4.9 2.2 13.5 3.6 22.2 3.8 11.8 0 16.3-1.7 18.6-4 1.7-1.6 2.2-3.8 2.2-6.1z"/><path d="m147.7 211.4h19.4v-2.9h-15.8v-3h15.4v-2.6h-15.4v-2.9h15.8v-2.8h-19.4z"/><path d="m170.5 153.4h7.1v31.5h-7.1z"/><path d="m241.7 153.4h7.1v31.5h-7.1z"/><path d="m102.6 168.8c4.6-.9 7.2-3.1 7.2-7.2 0-1.9-.4-3.6-1.9-5.1-2.1-2.2-5-3.2-13.6-3.2h-28.2v31.5h27.9c9.1 0 12.5-1.5 14.4-3.4 1.5-1.5 1.9-3.4 1.8-5.5 0-4.1-2.7-6.2-7.6-7.1zm-29.6-9.8h21c5.3 0 7.1.5 8 1.4.6.6.8 1.3.8 2.2s-.3 1.7-.8 2.2c-1 1-2.4 1.5-8.6 1.5h-20.4zm29.1 19c-.9 1-2.8 1.4-7.8 1.4h-21.3v-7.8h20.3c6.4 0 8 .8 8.9 1.5.5.6.8 1.3.8 2.3s-.2 1.9-.9 2.6z"/><path d="m190.8 208.9-12.5-11.7h-6.1v14.2h3.6v-11.9l12.9 11.9h5.7v-14.2h-3.6z"/><path d="m229.6 179.8c2.8-2.8 4.1-6.4 4.1-10.7s-1.3-7.9-4.1-10.7c-2.6-2.4-7.6-5-18.4-5h-23.1v31.4h23.1c11 0 16-2.6 18.4-5zm-34.4-20.7h16.1c7.3 0 11.2 1.3 13 3.1 1.7 1.7 2.4 3.8 2.4 7 0 3.1-.9 5.4-2.4 7-1.7 1.7-5.5 3.1-13 3.1h-16.1z"/><path d="m199.6 211.4h19.4v-2.9h-15.8v-3h15.4v-2.6h-15.4v-2.9h15.8v-2.8h-19.4z"/><path d="m284 203.2-6.8-6.2h-4.9l9.8 8.6v5.6h3.7v-5.6l9.6-8.6h-4.6z"/><path d="m53 180.2c2.8-2.8 4.1-6.3 4.1-11s-1.4-8.3-4.1-11c-3.1-3.1-9-5.6-20.8-5.6-9.3 0-14.9 1.5-18.4 3.7l-6.3 12.8 6.3 13c3.5 2.2 9.1 3.7 18.4 3.7 11.8 0 17.7-2.5 20.8-5.6zm-38.6-11.2c0-3.4.9-5.5 2.7-7.3 2.1-2 6.6-3.7 15-3.7 8.5 0 13 1.8 15 3.8 1.7 1.7 2.7 3.7 2.7 7.3s-.9 5.6-2.6 7.3c-2.2 2.2-6.7 3.8-15.2 3.8s-13-1.8-15-4c-1.7-1.8-2.6-3.7-2.6-7.2z"/><path d="m258.2 205.6h9.1v.3c0 .8-.3 1.4-.6 1.8-.9.9-3 1.3-6.6 1.3-3.5 0-5.8-.5-6.9-1.7-.8-.8-1.2-1.8-1.2-3.2s.4-2.6 1.2-3.3c.8-.6 2.6-1.5 6.9-1.5 3.6 0 6.7.5 9.3 1.4v-2.9c-2.6-.8-5.5-1.1-9.3-1.1-5 0-8.4.9-10 2.6-1.3 1.3-1.9 2.9-1.9 5.1s.6 3.8 1.9 5.1c1.7 1.8 4.9 2.6 9.9 2.6 4.8 0 7.5-.6 9.1-2.3 1-.9 1.4-2.3 1.4-4.5h.1v-1.9h-12.5v2.2z"/><path d="m276.5 153.2-22.1 31.7h7.7l5-7.4h27.6l5 7.4h8.4l-22.1-31.7zm-5.6 18.7 10-14.7 10 14.7z"/><path d="m358.8 158.9-7-4v1.7 22.2l-28.5-25.4h-10.3v31.5h7v-25.9l29 25.9 9.8-5.5v-18.9z"/><path d="m238.9 206.6c2.2-.3 3.5-.6 4.4-1.5.8-.8 1.2-1.8 1.2-3.2s-.4-2.4-1.2-3.2c-.9-1-2.3-1.5-6.8-1.5h-12.6v14.2h3.7v-4.7h5.7.1l7.1 4.7v.1h5.1l-7.5-4.7zm-11.2-2.5v-4.1h8.9c2.3 0 3.3.1 3.9.6.4.4.5.9.5 1.4 0 .4-.1.9-.5 1.3-.6.6-1.9.8-3.9.8z"/></g><g clip-path="url(#b)"><path d="m8.4 109.3 42.5-61v82.8z" fill="#9973b2"/><path d="m8.4 109.3 42.5 21.8v39.2z" fill="#8561aa"/><path d="m50.9 170.3h-85l42.5-61z" fill="#7c56a4"/><path d="m93.5 109.3 42.5-61h-85.1z" fill="#bb9bc8"/><path d="m93.5 109.3-42.6-61v82.8z" fill="#a884bc"/><path d="m93.5 109.3-42.6 21.8v39.2z" fill="#8f62aa"/><path d="m50.9 170.3h85.1l-42.5-61z" fill="#9663aa"/><path d="m93.5 109.3 42.5-21.1v-39.9z" fill="#b992c3"/><path d="m93.5 109.3 42.5 61v-82.1z" fill="#aa7db8"/><path d="m178.5 109.3-42.5-61h85z" fill="#d1b4d6"/><path d="m178.5 109.3 42.5-61v82.8z" fill="#bd90c2"/><path d="m178.5 109.3 42.5 21.8v39.2z" fill="#a668ab"/><path d="m221 170.3h-85l42.5-61z" fill="#9b59a4"/><path d="m178.5 109.3-42.5-21.1v-39.9z" fill="#b485bc"/><path d="m178.5 109.3-42.5 61v-82.1z" fill="#ad79b5"/><path d="m50.9 48.3h85.1l-42.5-61z" fill="#c8b1d5"/><path d="m93.5-12.7 42.5 61v-82.1z" fill="#d1bcdb"/><path d="m221 48.3h-85l42.5-61z" fill="#dfcfe5"/><path d="m178.5-12.7-42.5 61v-82.1z" fill="#d0b8d8"/><path d="m263.5 109.3 42.5-61h-85z" fill="#bd90c2"/><path d="m263.5 109.3-42.5-61v82.8z" fill="#b684bb"/><path d="m263.5 109.3-42.5 21.8v39.2z" fill="#b381b9"/><path d="m221 170.3h85l-42.5-61z" fill="#9d5ea6"/><path d="m263.5 109.3 42.5-21.1v-39.9z" fill="#b684bb"/><path d="m263.5 109.3 42.5 61v-82.1z" fill="#a168ab"/><path d="m391 170.3h-85l42.5-61z" fill="#8b489c"/><path d="m348.5 109.3-42.5 61v-82.1z" fill="#995da6"/><path d="m8.4 231.3 42.5-61h-85z" fill="#7651a1"/><path d="m8.4 231.3 42.5-21.1v-39.9z" fill="#714299"/><path d="m8.4 231.3 42.5 61v-82.1z" fill="#5c2d8c"/><path d="m93.5 231.3-42.6-61h85.1z" fill="#80459a"/><path d="m93.5 231.3 42.5-61v82.8z" fill="#85489c"/><path d="m93.5 231.3 42.5 21.8v39.2z" fill="#712c8e"/><path d="m136 292.3h-85.1l42.6-61z" fill="#632d8b"/><path d="m93.5 231.3-42.6-21.1v-39.9z" fill="#743a96"/><path d="m93.5 231.3-42.6 61v-82.1z" fill="#6a2d91"/><path d="m178.5 231.3 42.5-61h-85z" fill="#9c5ea6"/><path d="m178.5 231.3-42.5-61v82.8z" fill="#7a2a8e"/><path d="m93.5 353.3-42.6-61h85.1z" fill="#582a7c"/><path d="m93.5 353.3 42.5-61v82.8z" fill="#53266d"/><path d="m178.5 353.3 42.5-61h-85z" fill="#541f5e"/><path d="m178.5 353.3-42.5-61v82.8z" fill="#7a2e98"/><path d="m178.5 231.3-42.5 21.8v39.2z" fill="#652978"/><path d="m136 292.3h85l-42.5-61z" fill="#742786"/><path d="m178.5 231.3 42.5-21.1v-39.9z" fill="#8f4199"/><path d="m178.5 231.3 42.5 61v-82.1z" fill="#812990"/><path d="m263.5 231.3-42.5-61h85z" fill="#92459a"/><path d="m263.5 231.3 42.5-61v82.8z" fill="#863092"/><path d="m263.5 231.3 42.5 21.8v39.2z" fill="#7b2b8a"/><path d="m306 292.3h-85l42.5-61z" fill="#812990"/><path d="m263.5 231.3-42.5-21.1v-39.9z" fill="#8e3a96"/><path d="m263.5 231.3-42.5 61v-82.1z" fill="#893896"/><path d="m348.5 231.3 42.5-61h-85z" fill="#8f4c9e"/><path d="m348.5 231.3-42.5-61v82.8z" fill="#7b2b8a"/></g><g clip-path="url(#c)"><path d="m8.4 109.3 42.5-61v82.8z" fill="#9973b2"/><path d="m8.4 109.3 42.5 21.8v39.2z" fill="#8561aa"/><path d="m50.9 170.3h-85l42.5-61z" fill="#7c56a4"/><path d="m93.5 109.3 42.5-61h-85.1z" fill="#bb9bc8"/><path d="m93.5 109.3-42.6-61v82.8z" fill="#a884bc"/><path d="m93.5 109.3-42.6 21.8v39.2z" fill="#8f62aa"/><path d="m50.9 170.3h85.1l-42.5-61z" fill="#9663aa"/><path d="m93.5 109.3 42.5-21.1v-39.9z" fill="#b992c3"/><path d="m93.5 109.3 42.5 61v-82.1z" fill="#aa7db8"/><path d="m178.5 109.3-42.5-61h85z" fill="#d1b4d6"/><path d="m178.5 109.3 42.5-61v82.8z" fill="#bd90c2"/><path d="m178.5 109.3 42.5 21.8v39.2z" fill="#a668ab"/><path d="m221 170.3h-85l42.5-61z" fill="#9b59a4"/><path d="m178.5 109.3-42.5-21.1v-39.9z" fill="#b485bc"/><path d="m178.5 109.3-42.5 61v-82.1z" fill="#ad79b5"/><path d="m50.9 48.3h85.1l-42.5-61z" fill="#c8b1d5"/><path d="m93.5-12.7 42.5 61v-82.1z" fill="#d1bcdb"/><path d="m221 48.3h-85l42.5-61z" fill="#dfcfe5"/><path d="m178.5-12.7-42.5 61v-82.1z" fill="#d0b8d8"/><path d="m263.5 109.3 42.5-61h-85z" fill="#bd90c2"/><path d="m263.5 109.3-42.5-61v82.8z" fill="#b684bb"/><path d="m263.5 109.3-42.5 21.8v39.2z" fill="#b381b9"/><path d="m221 170.3h85l-42.5-61z" fill="#9d5ea6"/><path d="m263.5 109.3 42.5-21.1v-39.9z" fill="#b684bb"/><path d="m263.5 109.3 42.5 61v-82.1z" fill="#a168ab"/><path d="m391 170.3h-85l42.5-61z" fill="#8b489c"/><path d="m348.5 109.3-42.5 61v-82.1z" fill="#995da6"/><path d="m8.4 231.3 42.5-61h-85z" fill="#7651a1"/><path d="m8.4 231.3 42.5-21.1v-39.9z" fill="#714299"/><path d="m8.4 231.3 42.5 61v-82.1z" fill="#5c2d8c"/><path d="m93.5 231.3-42.6-61h85.1z" fill="#80459a"/><path d="m93.5 231.3 42.5-61v82.8z" fill="#85489c"/><path d="m93.5 231.3 42.5 21.8v39.2z" fill="#712c8e"/><path d="m136 292.3h-85.1l42.6-61z" fill="#632d8b"/><path d="m93.5 231.3-42.6-21.1v-39.9z" fill="#743a96"/><path d="m93.5 231.3-42.6 61v-82.1z" fill="#6a2d91"/><path d="m178.5 231.3 42.5-61h-85z" fill="#9c5ea6"/><path d="m178.5 231.3-42.5-61v82.8z" fill="#7a2a8e"/><path d="m93.5 353.3-42.6-61h85.1z" fill="#582a7c"/><path d="m93.5 353.3 42.5-61v82.8z" fill="#53266d"/><path d="m178.5 353.3 42.5-61h-85z" fill="#541f5e"/><path d="m178.5 353.3-42.5-61v82.8z" fill="#7a2e98"/><path d="m178.5 231.3-42.5 21.8v39.2z" fill="#652978"/><path d="m136 292.3h85l-42.5-61z" fill="#742786"/><path d="m178.5 231.3 42.5-21.1v-39.9z" fill="#8f4199"/><path d="m178.5 231.3 42.5 61v-82.1z" fill="#812990"/><path d="m263.5 231.3-42.5-61h85z" fill="#92459a"/><path d="m263.5 231.3 42.5-61v82.8z" fill="#863092"/><path d="m263.5 231.3 42.5 21.8v39.2z" fill="#7b2b8a"/><path d="m306 292.3h-85l42.5-61z" fill="#812990"/><path d="m263.5 231.3-42.5-21.1v-39.9z" fill="#8e3a96"/><path d="m263.5 231.3-42.5 61v-82.1z" fill="#893896"/><path d="m348.5 231.3 42.5-61h-85z" fill="#8f4c9e"/><path d="m348.5 231.3-42.5-61v82.8z" fill="#7b2b8a"/></g><g clip-path="url(#d)"><path d="m8.4 109.3 42.5-61v82.8z" fill="#9973b2"/><path d="m8.4 109.3 42.5 21.8v39.2z" fill="#8561aa"/><path d="m50.9 170.3h-85l42.5-61z" fill="#7c56a4"/><path d="m93.5 109.3 42.5-61h-85.1z" fill="#bb9bc8"/><path d="m93.5 109.3-42.6-61v82.8z" fill="#a884bc"/><path d="m93.5 109.3-42.6 21.8v39.2z" fill="#8f62aa"/><path d="m50.9 170.3h85.1l-42.5-61z" fill="#9663aa"/><path d="m93.5 109.3 42.5-21.1v-39.9z" fill="#b992c3"/><path d="m93.5 109.3 42.5 61v-82.1z" fill="#aa7db8"/><path d="m178.5 109.3-42.5-61h85z" fill="#d1b4d6"/><path d="m178.5 109.3 42.5-61v82.8z" fill="#bd90c2"/><path d="m178.5 109.3 42.5 21.8v39.2z" fill="#a668ab"/><path d="m221 170.3h-85l42.5-61z" fill="#9b59a4"/><path d="m178.5 109.3-42.5-21.1v-39.9z" fill="#b485bc"/><path d="m178.5 109.3-42.5 61v-82.1z" fill="#ad79b5"/><path d="m50.9 48.3h85.1l-42.5-61z" fill="#c8b1d5"/><path d="m93.5-12.7 42.5 61v-82.1z" fill="#d1bcdb"/><path d="m221 48.3h-85l42.5-61z" fill="#dfcfe5"/><path d="m178.5-12.7-42.5 61v-82.1z" fill="#d0b8d8"/><path d="m263.5 109.3 42.5-61h-85z" fill="#bd90c2"/><path d="m263.5 109.3-42.5-61v82.8z" fill="#b684bb"/><path d="m263.5 109.3-42.5 21.8v39.2z" fill="#b381b9"/><path d="m221 170.3h85l-42.5-61z" fill="#9d5ea6"/><path d="m263.5 109.3 42.5-21.1v-39.9z" fill="#b684bb"/><path d="m263.5 109.3 42.5 61v-82.1z" fill="#a168ab"/><path d="m391 170.3h-85l42.5-61z" fill="#8b489c"/><path d="m348.5 109.3-42.5 61v-82.1z" fill="#995da6"/><path d="m8.4 231.3 42.5-61h-85z" fill="#7651a1"/><path d="m8.4 231.3 42.5-21.1v-39.9z" fill="#714299"/><path d="m8.4 231.3 42.5 61v-82.1z" fill="#5c2d8c"/><path d="m93.5 231.3-42.6-61h85.1z" fill="#80459a"/><path d="m93.5 231.3 42.5-61v82.8z" fill="#85489c"/><path d="m93.5 231.3 42.5 21.8v39.2z" fill="#712c8e"/><path d="m136 292.3h-85.1l42.6-61z" fill="#632d8b"/><path d="m93.5 231.3-42.6-21.1v-39.9z" fill="#743a96"/><path d="m93.5 231.3-42.6 61v-82.1z" fill="#6a2d91"/><path d="m178.5 231.3 42.5-61h-85z" fill="#9c5ea6"/><path d="m178.5 231.3-42.5-61v82.8z" fill="#7a2a8e"/><path d="m93.5 353.3-42.6-61h85.1z" fill="#582a7c"/><path d="m93.5 353.3 42.5-61v82.8z" fill="#53266d"/><path d="m178.5 353.3 42.5-61h-85z" fill="#541f5e"/><path d="m178.5 353.3-42.5-61v82.8z" fill="#7a2e98"/><path d="m178.5 231.3-42.5 21.8v39.2z" fill="#652978"/><path d="m136 292.3h85l-42.5-61z" fill="#742786"/><path d="m178.5 231.3 42.5-21.1v-39.9z" fill="#8f4199"/><path d="m178.5 231.3 42.5 61v-82.1z" fill="#812990"/><path d="m263.5 231.3-42.5-61h85z" fill="#92459a"/><path d="m263.5 231.3 42.5-61v82.8z" fill="#863092"/><path d="m263.5 231.3 42.5 21.8v39.2z" fill="#7b2b8a"/><path d="m306 292.3h-85l42.5-61z" fill="#812990"/><path d="m263.5 231.3-42.5-21.1v-39.9z" fill="#8e3a96"/><path d="m263.5 231.3-42.5 61v-82.1z" fill="#893896"/><path d="m348.5 231.3 42.5-61h-85z" fill="#8f4c9e"/><path d="m348.5 231.3-42.5-61v82.8z" fill="#7b2b8a"/></g><g clip-path="url(#e)"><path d="m8.4 109.3 42.5-61v82.8z" fill="#9973b2"/><path d="m8.4 109.3 42.5 21.8v39.2z" fill="#8561aa"/><path d="m50.9 170.3h-85l42.5-61z" fill="#7c56a4"/><path d="m93.5 109.3 42.5-61h-85.1z" fill="#bb9bc8"/><path d="m93.5 109.3-42.6-61v82.8z" fill="#a884bc"/><path d="m93.5 109.3-42.6 21.8v39.2z" fill="#8f62aa"/><path d="m50.9 170.3h85.1l-42.5-61z" fill="#9663aa"/><path d="m93.5 109.3 42.5-21.1v-39.9z" fill="#b992c3"/><path d="m93.5 109.3 42.5 61v-82.1z" fill="#aa7db8"/><path d="m178.5 109.3-42.5-61h85z" fill="#d1b4d6"/><path d="m178.5 109.3 42.5-61v82.8z" fill="#bd90c2"/><path d="m178.5 109.3 42.5 21.8v39.2z" fill="#a668ab"/><path d="m221 170.3h-85l42.5-61z" fill="#9b59a4"/><path d="m178.5 109.3-42.5-21.1v-39.9z" fill="#b485bc"/><path d="m178.5 109.3-42.5 61v-82.1z" fill="#ad79b5"/><path d="m50.9 48.3h85.1l-42.5-61z" fill="#c8b1d5"/><path d="m93.5-12.7 42.5 61v-82.1z" fill="#d1bcdb"/><path d="m221 48.3h-85l42.5-61z" fill="#dfcfe5"/><path d="m178.5-12.7-42.5 61v-82.1z" fill="#d0b8d8"/><path d="m263.5 109.3 42.5-61h-85z" fill="#bd90c2"/><path d="m263.5 109.3-42.5-61v82.8z" fill="#b684bb"/><path d="m263.5 109.3-42.5 21.8v39.2z" fill="#b381b9"/><path d="m221 170.3h85l-42.5-61z" fill="#9d5ea6"/><path d="m263.5 109.3 42.5-21.1v-39.9z" fill="#b684bb"/><path d="m263.5 109.3 42.5 61v-82.1z" fill="#a168ab"/><path d="m391 170.3h-85l42.5-61z" fill="#8b489c"/><path d="m348.5 109.3-42.5 61v-82.1z" fill="#995da6"/><path d="m8.4 231.3 42.5-61h-85z" fill="#7651a1"/><path d="m8.4 231.3 42.5-21.1v-39.9z" fill="#714299"/><path d="m8.4 231.3 42.5 61v-82.1z" fill="#5c2d8c"/><path d="m93.5 231.3-42.6-61h85.1z" fill="#80459a"/><path d="m93.5 231.3 42.5-61v82.8z" fill="#85489c"/><path d="m93.5 231.3 42.5 21.8v39.2z" fill="#712c8e"/><path d="m136 292.3h-85.1l42.6-61z" fill="#632d8b"/><path d="m93.5 231.3-42.6-21.1v-39.9z" fill="#743a96"/><path d="m93.5 231.3-42.6 61v-82.1z" fill="#6a2d91"/><path d="m178.5 231.3 42.5-61h-85z" fill="#9c5ea6"/><path d="m178.5 231.3-42.5-61v82.8z" fill="#7a2a8e"/><path d="m93.5 353.3-42.6-61h85.1z" fill="#582a7c"/><path d="m93.5 353.3 42.5-61v82.8z" fill="#53266d"/><path d="m178.5 353.3 42.5-61h-85z" fill="#541f5e"/><path d="m178.5 353.3-42.5-61v82.8z" fill="#7a2e98"/><path d="m178.5 231.3-42.5 21.8v39.2z" fill="#652978"/><path d="m136 292.3h85l-42.5-61z" fill="#742786"/><path d="m178.5 231.3 42.5-21.1v-39.9z" fill="#8f4199"/><path d="m178.5 231.3 42.5 61v-82.1z" fill="#812990"/><path d="m263.5 231.3-42.5-61h85z" fill="#92459a"/><path d="m263.5 231.3 42.5-61v82.8z" fill="#863092"/><path d="m263.5 231.3 42.5 21.8v39.2z" fill="#7b2b8a"/><path d="m306 292.3h-85l42.5-61z" fill="#812990"/><path d="m263.5 231.3-42.5-21.1v-39.9z" fill="#8e3a96"/><path d="m263.5 231.3-42.5 61v-82.1z" fill="#893896"/><path d="m348.5 231.3 42.5-61h-85z" fill="#8f4c9e"/><path d="m348.5 231.3-42.5-61v82.8z" fill="#7b2b8a"/></g><g clip-path="url(#f)"><path d="m8.4 109.3 42.5-61v82.8z" fill="#9973b2"/><path d="m8.4 109.3 42.5 21.8v39.2z" fill="#8561aa"/><path d="m50.9 170.3h-85l42.5-61z" fill="#7c56a4"/><path d="m93.5 109.3 42.5-61h-85.1z" fill="#bb9bc8"/><path d="m93.5 109.3-42.6-61v82.8z" fill="#a884bc"/><path d="m93.5 109.3-42.6 21.8v39.2z" fill="#8f62aa"/><path d="m50.9 170.3h85.1l-42.5-61z" fill="#9663aa"/><path d="m93.5 109.3 42.5-21.1v-39.9z" fill="#b992c3"/><path d="m93.5 109.3 42.5 61v-82.1z" fill="#aa7db8"/><path d="m178.5 109.3-42.5-61h85z" fill="#d1b4d6"/><path d="m178.5 109.3 42.5-61v82.8z" fill="#bd90c2"/><path d="m178.5 109.3 42.5 21.8v39.2z" fill="#a668ab"/><path d="m221 170.3h-85l42.5-61z" fill="#9b59a4"/><path d="m178.5 109.3-42.5-21.1v-39.9z" fill="#b485bc"/><path d="m178.5 109.3-42.5 61v-82.1z" fill="#ad79b5"/><path d="m50.9 48.3h85.1l-42.5-61z" fill="#c8b1d5"/><path d="m93.5-12.7 42.5 61v-82.1z" fill="#d1bcdb"/><path d="m221 48.3h-85l42.5-61z" fill="#dfcfe5"/><path d="m178.5-12.7-42.5 61v-82.1z" fill="#d0b8d8"/><path d="m263.5 109.3 42.5-61h-85z" fill="#bd90c2"/><path d="m263.5 109.3-42.5-61v82.8z" fill="#b684bb"/><path d="m263.5 109.3-42.5 21.8v39.2z" fill="#b381b9"/><path d="m221 170.3h85l-42.5-61z" fill="#9d5ea6"/><path d="m263.5 109.3 42.5-21.1v-39.9z" fill="#b684bb"/><path d="m263.5 109.3 42.5 61v-82.1z" fill="#a168ab"/><path d="m391 170.3h-85l42.5-61z" fill="#8b489c"/><path d="m348.5 109.3-42.5 61v-82.1z" fill="#995da6"/><path d="m8.4 231.3 42.5-61h-85z" fill="#7651a1"/><path d="m8.4 231.3 42.5-21.1v-39.9z" fill="#714299"/><path d="m8.4 231.3 42.5 61v-82.1z" fill="#5c2d8c"/><path d="m93.5 231.3-42.6-61h85.1z" fill="#80459a"/><path d="m93.5 231.3 42.5-61v82.8z" fill="#85489c"/><path d="m93.5 231.3 42.5 21.8v39.2z" fill="#712c8e"/><path d="m136 292.3h-85.1l42.6-61z" fill="#632d8b"/><path d="m93.5 231.3-42.6-21.1v-39.9z" fill="#743a96"/><path d="m93.5 231.3-42.6 61v-82.1z" fill="#6a2d91"/><path d="m178.5 231.3 42.5-61h-85z" fill="#9c5ea6"/><path d="m178.5 231.3-42.5-61v82.8z" fill="#7a2a8e"/><path d="m93.5 353.3-42.6-61h85.1z" fill="#582a7c"/><path d="m93.5 353.3 42.5-61v82.8z" fill="#53266d"/><path d="m178.5 353.3 42.5-61h-85z" fill="#541f5e"/><path d="m178.5 353.3-42.5-61v82.8z" fill="#7a2e98"/><path d="m178.5 231.3-42.5 21.8v39.2z" fill="#652978"/><path d="m136 292.3h85l-42.5-61z" fill="#742786"/><path d="m178.5 231.3 42.5-21.1v-39.9z" fill="#8f4199"/><path d="m178.5 231.3 42.5 61v-82.1z" fill="#812990"/><path d="m263.5 231.3-42.5-61h85z" fill="#92459a"/><path d="m263.5 231.3 42.5-61v82.8z" fill="#863092"/><path d="m263.5 231.3 42.5 21.8v39.2z" fill="#7b2b8a"/><path d="m306 292.3h-85l42.5-61z" fill="#812990"/><path d="m263.5 231.3-42.5-21.1v-39.9z" fill="#8e3a96"/><path d="m263.5 231.3-42.5 61v-82.1z" fill="#893896"/><path d="m348.5 231.3 42.5-61h-85z" fill="#8f4c9e"/><path d="m348.5 231.3-42.5-61v82.8z" fill="#7b2b8a"/></g><g clip-path="url(#g)"><path d="m8.4 109.3 42.5-61v82.8z" fill="#9973b2"/><path d="m8.4 109.3 42.5 21.8v39.2z" fill="#8561aa"/><path d="m50.9 170.3h-85l42.5-61z" fill="#7c56a4"/><path d="m93.5 109.3 42.5-61h-85.1z" fill="#bb9bc8"/><path d="m93.5 109.3-42.6-61v82.8z" fill="#a884bc"/><path d="m93.5 109.3-42.6 21.8v39.2z" fill="#8f62aa"/><path d="m50.9 170.3h85.1l-42.5-61z" fill="#9663aa"/><path d="m93.5 109.3 42.5-21.1v-39.9z" fill="#b992c3"/><path d="m93.5 109.3 42.5 61v-82.1z" fill="#aa7db8"/><path d="m178.5 109.3-42.5-61h85z" fill="#d1b4d6"/><path d="m178.5 109.3 42.5-61v82.8z" fill="#bd90c2"/><path d="m178.5 109.3 42.5 21.8v39.2z" fill="#a668ab"/><path d="m221 170.3h-85l42.5-61z" fill="#9b59a4"/><path d="m178.5 109.3-42.5-21.1v-39.9z" fill="#b485bc"/><path d="m178.5 109.3-42.5 61v-82.1z" fill="#ad79b5"/><path d="m50.9 48.3h85.1l-42.5-61z" fill="#c8b1d5"/><path d="m93.5-12.7 42.5 61v-82.1z" fill="#d1bcdb"/><path d="m221 48.3h-85l42.5-61z" fill="#dfcfe5"/><path d="m178.5-12.7-42.5 61v-82.1z" fill="#d0b8d8"/><path d="m263.5 109.3 42.5-61h-85z" fill="#bd90c2"/><path d="m263.5 109.3-42.5-61v82.8z" fill="#b684bb"/><path d="m263.5 109.3-42.5 21.8v39.2z" fill="#b381b9"/><path d="m221 170.3h85l-42.5-61z" fill="#9d5ea6"/><path d="m263.5 109.3 42.5-21.1v-39.9z" fill="#b684bb"/><path d="m263.5 109.3 42.5 61v-82.1z" fill="#a168ab"/><path d="m391 170.3h-85l42.5-61z" fill="#8b489c"/><path d="m348.5 109.3-42.5 61v-82.1z" fill="#995da6"/><path d="m8.4 231.3 42.5-61h-85z" fill="#7651a1"/><path d="m8.4 231.3 42.5-21.1v-39.9z" fill="#714299"/><path d="m8.4 231.3 42.5 61v-82.1z" fill="#5c2d8c"/><path d="m93.5 231.3-42.6-61h85.1z" fill="#80459a"/><path d="m93.5 231.3 42.5-61v82.8z" fill="#85489c"/><path d="m93.5 231.3 42.5 21.8v39.2z" fill="#712c8e"/><path d="m136 292.3h-85.1l42.6-61z" fill="#632d8b"/><path d="m93.5 231.3-42.6-21.1v-39.9z" fill="#743a96"/><path d="m93.5 231.3-42.6 61v-82.1z" fill="#6a2d91"/><path d="m178.5 231.3 42.5-61h-85z" fill="#9c5ea6"/><path d="m178.5 231.3-42.5-61v82.8z" fill="#7a2a8e"/><path d="m93.5 353.3-42.6-61h85.1z" fill="#582a7c"/><path d="m93.5 353.3 42.5-61v82.8z" fill="#53266d"/><path d="m178.5 353.3 42.5-61h-85z" fill="#541f5e"/><path d="m178.5 353.3-42.5-61v82.8z" fill="#7a2e98"/><path d="m178.5 231.3-42.5 21.8v39.2z" fill="#652978"/><path d="m136 292.3h85l-42.5-61z" fill="#742786"/><path d="m178.5 231.3 42.5-21.1v-39.9z" fill="#8f4199"/><path d="m178.5 231.3 42.5 61v-82.1z" fill="#812990"/><path d="m263.5 231.3-42.5-61h85z" fill="#92459a"/><path d="m263.5 231.3 42.5-61v82.8z" fill="#863092"/><path d="m263.5 231.3 42.5 21.8v39.2z" fill="#7b2b8a"/><path d="m306 292.3h-85l42.5-61z" fill="#812990"/><path d="m263.5 231.3-42.5-21.1v-39.9z" fill="#8e3a96"/><path d="m263.5 231.3-42.5 61v-82.1z" fill="#893896"/><path d="m348.5 231.3 42.5-61h-85z" fill="#8f4c9e"/><path d="m348.5 231.3-42.5-61v82.8z" fill="#7b2b8a"/></g><g clip-path="url(#h)"><path d="m8.4 109.3 42.5-61v82.8z" fill="#9973b2"/><path d="m8.4 109.3 42.5 21.8v39.2z" fill="#8561aa"/><path d="m50.9 170.3h-85l42.5-61z" fill="#7c56a4"/><path d="m93.5 109.3 42.5-61h-85.1z" fill="#bb9bc8"/><path d="m93.5 109.3-42.6-61v82.8z" fill="#a884bc"/><path d="m93.5 109.3-42.6 21.8v39.2z" fill="#8f62aa"/><path d="m50.9 170.3h85.1l-42.5-61z" fill="#9663aa"/><path d="m93.5 109.3 42.5-21.1v-39.9z" fill="#b992c3"/><path d="m93.5 109.3 42.5 61v-82.1z" fill="#aa7db8"/><path d="m178.5 109.3-42.5-61h85z" fill="#d1b4d6"/><path d="m178.5 109.3 42.5-61v82.8z" fill="#bd90c2"/><path d="m178.5 109.3 42.5 21.8v39.2z" fill="#a668ab"/><path d="m221 170.3h-85l42.5-61z" fill="#9b59a4"/><path d="m178.5 109.3-42.5-21.1v-39.9z" fill="#b485bc"/><path d="m178.5 109.3-42.5 61v-82.1z" fill="#ad79b5"/><path d="m50.9 48.3h85.1l-42.5-61z" fill="#c8b1d5"/><path d="m93.5-12.7 42.5 61v-82.1z" fill="#d1bcdb"/><path d="m221 48.3h-85l42.5-61z" fill="#dfcfe5"/><path d="m178.5-12.7-42.5 61v-82.1z" fill="#d0b8d8"/><path d="m263.5 109.3 42.5-61h-85z" fill="#bd90c2"/><path d="m263.5 109.3-42.5-61v82.8z" fill="#b684bb"/><path d="m263.5 109.3-42.5 21.8v39.2z" fill="#b381b9"/><path d="m221 170.3h85l-42.5-61z" fill="#9d5ea6"/><path d="m263.5 109.3 42.5-21.1v-39.9z" fill="#b684bb"/><path d="m263.5 109.3 42.5 61v-82.1z" fill="#a168ab"/><path d="m391 170.3h-85l42.5-61z" fill="#8b489c"/><path d="m348.5 109.3-42.5 61v-82.1z" fill="#995da6"/><path d="m8.4 231.3 42.5-61h-85z" fill="#7651a1"/><path d="m8.4 231.3 42.5-21.1v-39.9z" fill="#714299"/><path d="m8.4 231.3 42.5 61v-82.1z" fill="#5c2d8c"/><path d="m93.5 231.3-42.6-61h85.1z" fill="#80459a"/><path d="m93.5 231.3 42.5-61v82.8z" fill="#85489c"/><path d="m93.5 231.3 42.5 21.8v39.2z" fill="#712c8e"/><path d="m136 292.3h-85.1l42.6-61z" fill="#632d8b"/><path d="m93.5 231.3-42.6-21.1v-39.9z" fill="#743a96"/><path d="m93.5 231.3-42.6 61v-82.1z" fill="#6a2d91"/><path d="m178.5 231.3 42.5-61h-85z" fill="#9c5ea6"/><path d="m178.5 231.3-42.5-61v82.8z" fill="#7a2a8e"/><path d="m93.5 353.3-42.6-61h85.1z" fill="#582a7c"/><path d="m93.5 353.3 42.5-61v82.8z" fill="#53266d"/><path d="m178.5 353.3 42.5-61h-85z" fill="#541f5e"/><path d="m178.5 353.3-42.5-61v82.8z" fill="#7a2e98"/><path d="m178.5 231.3-42.5 21.8v39.2z" fill="#652978"/><path d="m136 292.3h85l-42.5-61z" fill="#742786"/><path d="m178.5 231.3 42.5-21.1v-39.9z" fill="#8f4199"/><path d="m178.5 231.3 42.5 61v-82.1z" fill="#812990"/><path d="m263.5 231.3-42.5-61h85z" fill="#92459a"/><path d="m263.5 231.3 42.5-61v82.8z" fill="#863092"/><path d="m263.5 231.3 42.5 21.8v39.2z" fill="#7b2b8a"/><path d="m306 292.3h-85l42.5-61z" fill="#812990"/><path d="m263.5 231.3-42.5-21.1v-39.9z" fill="#8e3a96"/><path d="m263.5 231.3-42.5 61v-82.1z" fill="#893896"/><path d="m348.5 231.3 42.5-61h-85z" fill="#8f4c9e"/><path d="m348.5 231.3-42.5-61v82.8z" fill="#7b2b8a"/></g><g clip-path="url(#i)"><path d="m8.4 109.3 42.5-61v82.8z" fill="#9973b2"/><path d="m8.4 109.3 42.5 21.8v39.2z" fill="#8561aa"/><path d="m50.9 170.3h-85l42.5-61z" fill="#7c56a4"/><path d="m93.5 109.3 42.5-61h-85.1z" fill="#bb9bc8"/><path d="m93.5 109.3-42.6-61v82.8z" fill="#a884bc"/><path d="m93.5 109.3-42.6 21.8v39.2z" fill="#8f62aa"/><path d="m50.9 170.3h85.1l-42.5-61z" fill="#9663aa"/><path d="m93.5 109.3 42.5-21.1v-39.9z" fill="#b992c3"/><path d="m93.5 109.3 42.5 61v-82.1z" fill="#aa7db8"/><path d="m178.5 109.3-42.5-61h85z" fill="#d1b4d6"/><path d="m178.5 109.3 42.5-61v82.8z" fill="#bd90c2"/><path d="m178.5 109.3 42.5 21.8v39.2z" fill="#a668ab"/><path d="m221 170.3h-85l42.5-61z" fill="#9b59a4"/><path d="m178.5 109.3-42.5-21.1v-39.9z" fill="#b485bc"/><path d="m178.5 109.3-42.5 61v-82.1z" fill="#ad79b5"/><path d="m50.9 48.3h85.1l-42.5-61z" fill="#c8b1d5"/><path d="m93.5-12.7 42.5 61v-82.1z" fill="#d1bcdb"/><path d="m221 48.3h-85l42.5-61z" fill="#dfcfe5"/><path d="m178.5-12.7-42.5 61v-82.1z" fill="#d0b8d8"/><path d="m263.5 109.3 42.5-61h-85z" fill="#bd90c2"/><path d="m263.5 109.3-42.5-61v82.8z" fill="#b684bb"/><path d="m263.5 109.3-42.5 21.8v39.2z" fill="#b381b9"/><path d="m221 170.3h85l-42.5-61z" fill="#9d5ea6"/><path d="m263.5 109.3 42.5-21.1v-39.9z" fill="#b684bb"/><path d="m263.5 109.3 42.5 61v-82.1z" fill="#a168ab"/><path d="m391 170.3h-85l42.5-61z" fill="#8b489c"/><path d="m348.5 109.3-42.5 61v-82.1z" fill="#995da6"/><path d="m8.4 231.3 42.5-61h-85z" fill="#7651a1"/><path d="m8.4 231.3 42.5-21.1v-39.9z" fill="#714299"/><path d="m8.4 231.3 42.5 61v-82.1z" fill="#5c2d8c"/><path d="m93.5 231.3-42.6-61h85.1z" fill="#80459a"/><path d="m93.5 231.3 42.5-61v82.8z" fill="#85489c"/><path d="m93.5 231.3 42.5 21.8v39.2z" fill="#712c8e"/><path d="m136 292.3h-85.1l42.6-61z" fill="#632d8b"/><path d="m93.5 231.3-42.6-21.1v-39.9z" fill="#743a96"/><path d="m93.5 231.3-42.6 61v-82.1z" fill="#6a2d91"/><path d="m178.5 231.3 42.5-61h-85z" fill="#9c5ea6"/><path d="m178.5 231.3-42.5-61v82.8z" fill="#7a2a8e"/><path d="m93.5 353.3-42.6-61h85.1z" fill="#582a7c"/><path d="m93.5 353.3 42.5-61v82.8z" fill="#53266d"/><path d="m178.5 353.3 42.5-61h-85z" fill="#541f5e"/><path d="m178.5 353.3-42.5-61v82.8z" fill="#7a2e98"/><path d="m178.5 231.3-42.5 21.8v39.2z" fill="#652978"/><path d="m136 292.3h85l-42.5-61z" fill="#742786"/><path d="m178.5 231.3 42.5-21.1v-39.9z" fill="#8f4199"/><path d="m178.5 231.3 42.5 61v-82.1z" fill="#812990"/><path d="m263.5 231.3-42.5-61h85z" fill="#92459a"/><path d="m263.5 231.3 42.5-61v82.8z" fill="#863092"/><path d="m263.5 231.3 42.5 21.8v39.2z" fill="#7b2b8a"/><path d="m306 292.3h-85l42.5-61z" fill="#812990"/><path d="m263.5 231.3-42.5-21.1v-39.9z" fill="#8e3a96"/><path d="m263.5 231.3-42.5 61v-82.1z" fill="#893896"/><path d="m348.5 231.3 42.5-61h-85z" fill="#8f4c9e"/><path d="m348.5 231.3-42.5-61v82.8z" fill="#7b2b8a"/></g></svg>