<svg xmlns="http://www.w3.org/2000/svg" xmlns:xlink="http://www.w3.org/1999/xlink" width="243.6" height="79.4">
<style type="text/css">
	.st0{fill-rule:evenodd;clip-rule:evenodd;fill:#1f3a7d;}
	.st1{fill-rule:evenodd;clip-rule:evenodd;fill:#CC1F26;}
</style>
<g>
	<path class="st0" d="M178.8,60.2H176c-1.1,0-1.5,0.6-1.7,2.1h-0.5c0-2.2,0-3.4,0-4.5c1.5,0,3.8,0,5.3,0h2.4c1.7,0,3.9,0,5.2,0
		c0,1.1,0,2.4,0,4.5h-0.5c-0.1-1.5-0.5-2.1-1.7-2.1h-2.8v6.6c0,5.4,0,6,1.6,6v0.6c-0.8,0-1.9,0-3.1,0c-1.1,0-2.4,0-3.1,0v-0.6
		c1.5,0,1.5-0.6,1.5-6v-6.6H178.8z"></path>
	<path class="st0" d="M27.1,65.4c0,4.8-3.7,8.3-8.5,8.3c-4.6,0-8.3-3.4-8.3-8c0-5,3.8-8.2,8.6-8.2C23.5,57.5,27.1,60.6,27.1,65.4
		L27.1,65.4L27.1,65.4z M23.8,65.5c0-3-2.1-5.5-5-5.5c-3.1,0-5.1,2.4-5.1,5.5s2.1,5.4,5,5.4C21.6,71.1,23.8,68.7,23.8,65.5
		L23.8,65.5z"></path>
	<path class="st0" d="M215.6,65.4c0,4.8-3.7,8.3-8.5,8.3c-4.6,0-8.3-3.4-8.3-8c0-5,3.8-8.2,8.6-8.2C212,57.5,215.6,60.6,215.6,65.4
		L215.6,65.4L215.6,65.4z M212.3,65.5c0-3-2.1-5.5-5-5.5c-3.1,0-5.1,2.4-5.1,5.5s2.1,5.4,5,5.4C210.2,71.1,212.3,68.7,212.3,65.5
		L212.3,65.5z"></path>
	<path class="st0" d="M33.6,67c0,5.3,0,5.8,1.9,5.8v0.6c-0.8,0-2.1,0-3.4,0c-1.4,0-2.5,0-3.3,0v-0.6c1.8,0,1.8-0.5,1.8-5.7v-3.4
		c0-4.9,0-5.4-1.8-5.4v-0.6c0.8,0,2,0,3.2,0c1.3,0,2.6,0,3.2,0v0.6c-1.7,0-1.7,0.5-1.7,5.4L33.6,67L33.6,67z"></path>
	<path class="st0" d="M194.5,67c0,5.3,0,5.8,1.9,5.8v0.6c-0.8,0-2.1,0-3.4,0c-1.4,0-2.5,0-3.3,0v-0.6c1.8,0,1.8-0.5,1.8-5.7v-3.4
		c0-4.9,0-5.4-1.8-5.4v-0.6c0.8,0,2,0,3.2,0c1.3,0,2.6,0,3.2,0v0.6c-1.7,0-1.7,0.5-1.7,5.4V67H194.5z"></path>
	<path class="st0" d="M40.6,63.7c0-4.9,0-5.4-1.8-5.4v-0.6c0.8,0,2,0,3.3,0c1.2,0,2.4,0,3.2,0v0.6c-1.7,0-1.7,0.5-1.7,5.4v6.6
		c0,0.5,0.1,0.6,0.7,0.6H47c0.7,0,1.1-0.1,1.5-0.5c0.2-0.2,0.4-0.7,0.5-1.3h0.5c-0.1,1.8-0.1,3.1-0.1,4.3c-1.3,0-3.4,0-5.3,0
		c-2.2,0-4.2,0-5.2,0v-0.6c1.7,0,1.7-0.5,1.7-5.8C40.6,67,40.6,63.7,40.6,63.7z"></path>
	<path class="st0" d="M163.7,70.1c-0.9,2.2-1,2.7,0.6,2.7v0.6c-0.9,0-2,0-3.2,0c-1.3,0-2.2,0-2.8,0v-0.6c1.2,0,1.4-0.5,3.7-5.8
		l4-9.5h0.6l3.9,9.5c2.2,5.3,2.4,5.8,3.6,5.8v0.6c-0.6,0-1.5,0-2.8,0s-2.5,0-3.4,0v-0.6c1.6,0,1.4-0.5,0.6-2.7H163.7L163.7,70.1z
		 M167.6,67.9L167.6,67.9c-1.1-3.2-1.4-3.9-1.5-4.3l0,0c-0.1,0.4-0.4,1.1-1.5,4.3V68L167.6,67.9L167.6,67.9z"></path>
	<path class="st0" d="M232.3,73.5h-0.5c-3.3-3.3-5.4-5.4-6.7-6.7c-0.8-0.9-1.8-1.8-2.9-3.1l0,0c0,0.8,0,1.4,0,3.3
		c0,5.3,0,5.8,1.7,5.8v0.6c-1.2,0-2.2,0-3.2,0c-1.2,0-2.1,0-3,0v-0.6c1.8,0,1.8-0.5,1.8-5.8v-9.4h0.5c3.2,3.3,5.3,5.4,6.7,6.8
		c1,1,1.7,1.8,2.9,3.2h0.1c0-0.9,0-1.8,0-4c0-4.9,0-5.4-1.8-5.4v-0.6c1.1,0,2.1,0,3.1,0c1.2,0,2.1,0,3,0v0.6c-1.6,0-1.6,0.5-1.6,5.4
		v9.9H232.3z"></path>
	<path class="st0" d="M59.1,65.6c0-5.1,4.2-8,9.2-8c0.6,0,1.3,0,1.9,0.1c0.6,0,1.2,0.1,1.8,0.2c-0.1,1.4-0.1,2.3-0.2,4.6h-0.5
		c-0.1-1-0.4-1.5-0.8-1.8c-0.5-0.4-1.4-0.6-2.4-0.6c-3.1,0-5.6,2.1-5.6,5.4c0,3.4,2.4,5.5,5.4,5.5c1,0,1.9-0.2,2.5-0.6
		c0.5-0.3,0.9-0.7,1-1.7h0.5c0,1.5,0,3.2,0,4.3c-0.4,0.1-0.9,0.3-1.5,0.4c-0.8,0.2-1.6,0.2-2.5,0.2C62.8,73.6,59.1,70.5,59.1,65.6
		L59.1,65.6z"></path>
	<path class="st0" d="M91.8,65.4c0,4.8-3.7,8.3-8.5,8.3c-4.6,0-8.3-3.4-8.3-8c0-5,3.8-8.2,8.6-8.2C88.1,57.5,91.8,60.6,91.8,65.4
		L91.8,65.4L91.8,65.4z M88.4,65.5c0-3-2.1-5.5-5-5.5c-3.1,0-5.1,2.4-5.1,5.5s2.1,5.4,5,5.4C86.3,71.1,88.4,68.7,88.4,65.5
		L88.4,65.5z"></path>
	<path class="st0" d="M141.3,65.4c0,4.8-3.7,8.3-8.5,8.3c-4.6,0-8.3-3.4-8.3-8c0-5,3.8-8.2,8.6-8.2
		C137.6,57.5,141.3,60.6,141.3,65.4L141.3,65.4L141.3,65.4z M137.9,65.5c0-3-2.1-5.5-5-5.5c-3.1,0-5.1,2.4-5.1,5.5s2.1,5.4,5,5.4
		C135.8,71.1,137.9,68.7,137.9,65.5L137.9,65.5z"></path>
	<path class="st0" d="M95.6,63.7c0-4.9,0-5.4-1.6-5.4v-0.5h2.9c0.4,0,0.9,0,1.3,0c0.5,0,1,0,1.4,0c1.1,0,2.1,0.2,2.8,0.5
		c1.6,0.6,2.7,2.1,2.7,4.3c0,1.7-0.8,2.8-1.6,3.5c-0.4,0.3-0.9,0.6-1.3,0.8l0,0c1.1,1.5,2,2.7,3.6,4.7c0.7,0.9,1.3,1.2,2,1.2v0.6
		c-0.6,0-1.3,0-2,0c-0.6,0-1.2,0-1.7,0c-0.6,0-1-0.1-1.3-0.5c-1.3-1.9-2.5-3.8-3.6-5.4h-0.9v0.9c0,4,0,4.4,1.6,4.4v0.6
		c-0.8,0-1.8,0-3,0c-1.1,0-2.2,0-3.1,0v-0.6c1.6,0,1.6-0.5,1.6-5.8v-3.3H95.6z M102,62.5c0-1.4-0.9-2.4-2.5-2.4c-0.4,0-0.9,0-1,0.1
		v4.9c0.3,0,0.6,0,0.8,0c0.6,0,1.2-0.2,1.7-0.5C101.5,64.3,102,63.6,102,62.5L102,62.5z"></path>
	<path class="st0" d="M144.6,63.7c0-4.9,0-5.4-1.6-5.4v-0.5h2.9c0.4,0,0.9,0,1.3,0c0.5,0,1,0,1.4,0c1.1,0,2.1,0.2,2.8,0.5
		c1.6,0.6,2.7,2.1,2.7,4.3c0,1.7-0.8,2.8-1.6,3.5c-0.4,0.3-0.9,0.6-1.3,0.8l0,0c1.1,1.5,2,2.7,3.6,4.7c0.7,0.9,1.3,1.2,2,1.2v0.6
		c-0.6,0-1.3,0-2,0c-0.6,0-1.2,0-1.7,0c-0.6,0-1-0.1-1.3-0.5c-1.3-1.9-2.5-3.8-3.6-5.4h-0.9v0.9c0,4,0,4.4,1.6,4.4v0.6
		c-0.8,0-1.8,0-3,0c-1.1,0-2.2,0-3.1,0v-0.6c1.6,0,1.6-0.5,1.6-5.8v-3.3H144.6z M151,62.5c0-1.4-0.9-2.4-2.5-2.4c-0.4,0-0.9,0-1,0.1
		v4.9c0.3,0,0.6,0,0.8,0c0.6,0,1.2-0.2,1.7-0.5C150.5,64.3,151,63.6,151,62.5L151,62.5z"></path>
	<path class="st0" d="M112,63.7c0-4.9,0-5.4-1.6-5.4v-0.5h2.5c0.5,0,0.9,0,1.4,0c0.4,0,0.9,0,1.4,0c1.5,0,2.8,0.2,3.8,0.8
		c1.4,0.8,2.3,2.2,2.3,4.2c0,1-0.2,1.7-0.6,2.4s-0.9,1.3-1.6,1.8s-1.6,0.8-2.5,0.9c-0.7,0.1-1.5,0.1-2.1,0.1v0.8
		c0,3.6,0,4.1,1.8,4.1v0.6c-1,0-2.1,0-3.2,0s-2.2,0-3.1,0v-0.6c1.7,0,1.6-0.5,1.6-5.8v-3.4H112z M118.7,62.7c0-0.9-0.3-1.7-1-2.1
		c-0.5-0.3-1.1-0.5-1.8-0.5c-0.3,0-0.7,0-0.9,0.1v5.4c0.2,0,0.6,0,1,0c0.5-0.1,1-0.1,1.4-0.4c0.4-0.2,0.8-0.6,1-1
		C118.5,63.8,118.7,63.3,118.7,62.7L118.7,62.7z"></path>
</g>
<path class="st0" d="M28.9,26.7v-0.1c-2.3-6.4-2.8-7.8-2.9-8.6h-0.1c-0.2,0.7-0.8,2.1-3.1,8.6v0.1H28.9L28.9,26.7z M21.1,31.2
	c-1.8,4.5-2.1,5.5,1.2,5.5v1.2c-1.9,0-4.1-0.1-6.5-0.1c-2.6,0-4.5,0-5.7,0.1v-1.2c2.4,0,2.9-0.9,7.4-11.7l8.1-19.3h1.2L34.7,25
	c4.4,10.7,4.9,11.7,7.3,11.7v1.2c-1.2,0-3-0.1-5.7-0.1c-2.6,0-5.1,0-6.9,0.1v-1.2c3.2,0,2.9-1,1.1-5.5H21.1z"></path>
<path class="st0" d="M48.3,18.2h-3.5c-2.2,0-2.9,1-3.1,3.2h-0.9c0-3.3,0-5.9,0-7.5c2.9,0,5.5,0.1,8.3,0.1h4.6c3.1,0,5.6,0,8-0.1
	c0,1.7,0,4.2,0,7.5h-0.9c-0.2-2.4-0.9-3.2-3.2-3.2H54v9.4c0,8.2,0,9.2,3.1,9.2v1c-1.4,0-3.6-0.1-5.8-0.1c-2.1,0-4.6,0-5.8,0.1v-1
	c2.9,0,2.9-0.9,2.9-9.2v-9.4H48.3z"></path>
<path class="st0" d="M86.9,27.7c0,8.2,0,9.2,3,9.2v1c-1.4,0-3.5-0.1-5.6-0.1c-2.3,0-4.5,0-6,0.1v-1c2.9,0,2.9-0.9,2.9-6.9v-2h-9v2
	c0,6,0,6.9,2.9,6.9v1c-1.5,0-3.7-0.1-6-0.1c-2.1,0-4.2,0-5.6,0.1v-1c2.9,0,2.9-0.9,2.9-9.2v-4.3c0-7.6,0-8.5-2.7-8.5v-1
	c1.3,0,3.5,0.1,5.7,0.1c2.1,0,4.2,0,5.4-0.1v1c-2.7,0-2.7,0.9-2.7,7.2v1.3h9V22c0-6.2,0-7.1-2.5-7.1v-1c1.2,0,3.3,0.1,5.5,0.1
	c2.1,0,4.1,0,5.2-0.1v1c-2.5,0-2.5,0.9-2.5,8.5L86.9,27.7L86.9,27.7z"></path>
<path class="st0" d="M105.3,29.9L105.3,29.9c-1-3-1.5-4.4-1.7-5h-0.1c-0.1,0.6-0.7,1.9-1.7,4.9v0.1H105.3L105.3,29.9z M100.4,34
	c-0.8,1.9-1,2.8,1.4,2.8v1c-1.7,0-3.6-0.1-5.6-0.1c-2.2,0-3.8,0-4.8,0.1v-1c1.8,0,2.3-0.9,5.9-9.2l6.1-14.1h1.1l6,14.1
	c3.5,8.3,4,9.2,5.8,9.2v1c-1,0-2.7-0.1-4.9-0.1c-2.2,0-4.2,0-5.9,0.1v-1c2.3,0,2-0.9,1.3-2.8H100.4z"></path>
<path class="st0" d="M130.6,30.5c0-1.4-0.9-2.2-1.8-2.4c-0.4-0.2-1.2-0.2-1.7-0.2c-0.4,0-0.8,0-1.2,0.1v4c0,0.9,0.2,1,0.5,1.1
	s0.9,0.1,1.2,0.1c0.9,0,1.7-0.3,2.2-0.7C130.2,32,130.6,31.3,130.6,30.5L130.6,30.5L130.6,30.5z M129.8,20.8c0-1.4-1-2.6-2.7-2.6
	c-0.5,0-1,0.1-1.3,0.1v5.2c0.5,0,0.7,0,0.9,0c0.5,0,1.1-0.1,1.6-0.3C129,22.8,129.8,22.1,129.8,20.8L129.8,20.8L129.8,20.8z
	 M136.4,30.9c0,2.4-1.1,4.2-2.7,5.3c-1.5,1-3.5,1.6-7.4,1.6c-0.7,0-1.4,0-2.1-0.1c-0.8,0-1.6,0-2.4,0c-1.2,0-2.4,0-3.9,0v-0.9
	c2.6,0,2.6-0.9,2.6-9.2v-4.3c0-7.6,0-8.5-2.3-8.5v-0.9c1,0,3.4,0,4.3,0c0.5,0,1.2,0,2-0.1c0.8,0,1.6,0,2.4,0c1.7,0,3.3,0.2,4.5,0.5
	c2.3,0.7,4.2,2.7,4.2,5.8c0,2.7-2,4.7-3.9,5.1v0.1C134.1,25.7,136.4,28.1,136.4,30.9L136.4,30.9z"></path>
<path class="st0" d="M150.3,29.9L150.3,29.9c-1-3-1.5-4.4-1.7-5h-0.1c-0.1,0.6-0.7,1.9-1.7,4.9v0.1H150.3L150.3,29.9z M145.4,34
	c-0.8,1.9-1,2.8,1.4,2.8v1c-1.7,0-3.6-0.1-5.6-0.1c-2.2,0-3.8,0-4.8,0.1v-1c1.8,0,2.3-0.9,5.9-9.2l6.1-14.1h1.1l6,14.1
	c3.5,8.3,4,9.2,5.8,9.2v1c-1,0-2.7-0.1-4.9-0.1s-4.2,0-5.9,0.1v-1c2.3,0,2-0.9,1.2-2.8H145.4z"></path>
<path class="st0" d="M177.3,30.8c0,4.3-3.3,7.2-8.6,7.2c-2.4,0-4.6-0.5-5.7-1c0.1-1.6,0.2-4.1,0.2-7.4h1c0.1,1.4,0.7,2.4,1.4,3
	c0.8,0.6,1.8,0.8,2.7,0.8c1.8,0,3-0.8,3-2.2c0-1-0.6-1.7-1.6-2.4c-0.4-0.3-1.3-0.9-2.3-1.5c-3.2-2.1-4.1-4.1-4.1-6.4
	c0-4.2,3.4-7.1,8.2-7.1c1.5,0,3.6,0.3,4.5,0.7c-0.1,2.2-0.1,4.9-0.1,7.3h-1c0-1.1-0.4-1.9-0.9-2.5c-0.5-0.5-1.3-0.8-2.4-0.8
	c-1.6,0-2.5,0.9-2.5,2c0,0.8,0.5,1.5,1.4,2.1c0.8,0.6,1.7,1.2,3.1,2.1C176.1,26.4,177.3,28.4,177.3,30.8L177.3,30.8z"></path>
<path class="st0" d="M180.2,26c0-7.8,6.5-12.3,14.5-12.3c0.9,0,1.9,0.1,2.8,0.1c0.9,0.1,1.9,0.2,2.7,0.3c-0.1,2.2-0.2,3.7-0.2,7.9
	h-0.9c-0.2-1.4-0.8-2.3-1.4-2.8c-0.7-0.5-2.1-0.8-3.5-0.8c-3.9,0-7.5,2.8-7.5,7.3c0,4.7,3.1,7.5,7.2,7.5c1.5,0,2.9-0.3,3.8-0.9
	c0.8-0.5,1.3-1.2,1.6-2.5h0.9c0,2.6,0.1,5.6,0.1,7.5c-0.6,0.2-1.6,0.4-2.6,0.6c-1.2,0.2-2.4,0.2-3.8,0.2
	C186,38.1,180.2,33.5,180.2,26L180.2,26z"></path>
<path class="st0" d="M220.7,26.7v-0.1c-2.3-6.4-2.8-7.8-2.9-8.6h-0.1c-0.2,0.7-0.8,2.1-3.1,8.6v0.1H220.7L220.7,26.7z M212.9,31.2
	c-1.8,4.5-2.1,5.5,1.2,5.5v1.2c-1.9,0-4.1-0.1-6.5-0.1c-2.6,0-4.5,0-5.7,0.1v-1.2c2.4,0,2.9-0.9,7.4-11.7l8.1-19.3h1.2l7.9,19.3
	c4.4,10.7,4.9,11.7,7.3,11.7v1.2c-1.2,0-3-0.1-5.7-0.1c-2.6,0-5.1,0-6.9,0.1v-1.2c3.2,0,2.9-1,1.1-5.5H212.9z"></path>
<rect x="2.1" y="45.2" class="st1" width="240" height="4.6"></rect>
</svg>