<?xml version="1.0"?>
<svg xmlns="http://www.w3.org/2000/svg" xmlns:xlink="http://www.w3.org/1999/xlink" width="390.337" height="122.268">
<path d="M368.055,38.472C277.6-4.332,190.606-2.053,133.56,7.392c-10.189,1.69-19.802,3.661-28.772,5.779
	c0.462,1.247,0.731,2.587,0.767,3.986c8.976-2.118,18.601-4.097,28.813-5.787c56.441-9.325,142.5-11.563,231.952,30.767
	c1.012,0.481,2.221,0.05,2.702-0.963C369.499,40.162,369.071,38.953,368.055,38.472"/>
<path d="M30.321,38.5c-0.998,0.51-1.393,1.728-0.889,2.724c0.51,0.999,1.732,1.398,2.729,0.888
	c0.275-0.14,18.962-9.534,49.98-18.731c-0.631-1.177-1.069-2.473-1.298-3.838C49.5,28.851,30.597,38.361,30.321,38.5"/>
<path fill="#C3A204" d="M84.839,17.573c-0.004,0.045-0.008,0.095-0.012,0.14c-0.023,0.251-0.039,0.506-0.039,0.757
	c0,4.414,3.34,7.992,7.459,7.992V0.202C92.247,5.196,85.458,11.308,84.839,17.573"/>
<path d="M101.068,17.514c-0.004-0.045-0.013-0.09-0.019-0.144C100.431,11.114,93.646,4.998,93.646,0v26.259
	c4.115,0,7.456-3.578,7.456-7.992C101.102,18.02,101.089,17.761,101.068,17.514"/>
<path fill="#A7A9AC" d="M225.121,120.396"/>
<path fill="#58595B" d="M225.13,120.396h-0.009H225.13z"/>
<path fill="#58595B" d="M225.13,120.396L225.13,120.396z"/>
<path fill="#58595B" d="M225.13,120.396c0.004,0,0.013,0,0.021,0C225.143,120.396,225.138,120.396,225.13,120.396z"/>
<path fill="#58595B" d="M225.121,120.396"/>
<path fill="#FFFFFF" d="M225.121,120.396h0.009H225.121z"/>
<path fill="#FFFFFF" d="M225.13,120.396L225.13,120.396z"/>
<path fill="#FFFFFF" d="M225.13,120.396"/>
<path fill="#FFFFFF" d="M225.121,120.396"/>
<polygon points="225.13,120.396 225.13,120.396 225.121,120.396 "/>
<polygon points="225.13,120.396 225.13,120.396 225.121,120.396 "/>
<path fill="#C3A204" d="M58.53,74.081c-0.666,0.757-2.371,0.852-3.038,0.189c-1.612-5.977-5.884-13.85-18.4-13.85
	c-12.048,0-24.19,8.535-24.19,27.982c0,20.205,12.616,30.068,24.854,30.068c11.949,0,17.169-7.963,19.822-14.129
	c0.855-0.855,2.371-0.478,2.847,0.378c-0.665,6.355-3.226,12.616-4.552,14.418c-1.138,0.188-2.274,0.567-3.319,0.851
	c-2.09,0.667-8.636,2.279-14.798,2.279c-9.393,0-17.455-1.896-24.287-6.355C5.788,110.886,0,102.252,0,89.827
	C0,78.729,4.932,70.095,11.953,64.69c7.018-5.311,16.6-8.066,26.177-8.066c5.409,0,11.956,0.95,16.417,2.09
	c1.135,0.279,1.802,0.378,2.652,0.567C57.389,61.46,57.578,67.059,58.53,74.081"/>
<path fill="#C3A204" d="M103.207,101.59c0,13.471-9.489,20.488-20.778,20.488c-10.904,0-20.016-6.927-20.016-19.349
	c0-12.715,9.675-20.682,20.774-20.682C93.907,82.048,103.207,89.258,103.207,101.59 M83.57,118.282c6.546,0,8.44-7.773,8.44-15.083
	c0-7.964-2.75-17.358-9.771-17.358c-4.835,0-8.63,4.932-8.63,15.462C73.609,109.936,76.738,118.282,83.57,118.282"/>
<path fill="#C3A204" d="M122.081,109.463c0,7.018,0.378,8.062,3.605,8.63l1.423,0.188c0.662,0.667,0.57,2.374-0.193,2.757
	c-3.319-0.193-6.54-0.288-10.053-0.288c-3.038,0-6.261,0.095-10.244,0.288c-0.759-0.383-0.855-2.09-0.189-2.757l2.084-0.279
	c3.227-0.478,3.607-1.521,3.607-8.539V95.519c0-4.273,0-5.405-2.372-6.828l-1.137-0.666c-0.288-0.379-0.288-1.711,0.092-2.185
	c4.081-1.135,9.301-3.414,12.332-5.121c0.666,0,1.045,0.379,1.234,0.761c-0.189,1.802-0.189,3.604-0.189,4.36
	c0,0.667,0.282,0.855,0.855,0.95c4.457-2.464,7.114-4.742,12.994-4.742c7.682,0,11.289,5.31,11.289,12.71v14.705
	c0,7.018,0.378,8.062,3.605,8.539l2.182,0.279c0.66,0.667,0.567,2.374-0.191,2.757c-3.983-0.193-7.21-0.288-10.719-0.288
	c-3.129,0-6.355,0.095-9.675,0.288c-0.763-0.383-0.855-2.09-0.193-2.757l1.423-0.188c3.228-0.568,3.605-1.612,3.605-8.63V96.371
	c0-4.837-1.896-8.634-7.589-8.634c-2.941,0-5.313,1.521-6.261,2.945c-1.229,1.707-1.326,2.563-1.326,6.071V109.463z"/>
<path fill="#C3A204" d="M170.267,109.463c0,7.018,0.38,8.062,3.605,8.63l1.425,0.188c0.66,0.667,0.567,2.374-0.191,2.757
	c-3.317-0.193-6.544-0.288-10.053-0.288c-3.037,0-6.265,0.095-10.248,0.288c-0.759-0.383-0.852-2.09-0.189-2.757l2.09-0.279
	c3.221-0.478,3.605-1.521,3.605-8.539V95.519c0-4.273,0-5.405-2.372-6.828l-1.141-0.666c-0.282-0.379-0.282-1.711,0.097-2.185
	c4.076-1.135,9.296-3.414,12.327-5.121c0.666,0,1.045,0.379,1.234,0.761c-0.189,1.802-0.189,3.604-0.189,4.36
	c0,0.667,0.288,0.855,0.855,0.95c4.457-2.464,7.114-4.742,12.994-4.742c7.688,0,11.289,5.31,11.289,12.71v14.705
	c0,7.018,0.382,8.062,3.604,8.539l2.183,0.279c0.664,0.667,0.567,2.374-0.191,2.757c-3.983-0.193-7.206-0.288-10.719-0.288
	c-3.129,0-6.355,0.095-9.675,0.288c-0.759-0.383-0.855-2.09-0.189-2.757l1.424-0.188c3.223-0.568,3.604-1.612,3.604-8.63V96.371
	c0-4.837-1.898-8.634-7.589-8.634c-2.94,0-5.313,1.521-6.265,2.945c-1.229,1.707-1.326,2.563-1.326,6.071V109.463z"/>
<path fill="#C3A204" d="M232.686,108.707c-0.287,5.499,1.136,8.346,4.554,8.346c1.608,0,2.937-1.045,3.225-1.045
	c0.474,0,1.136,1.045,0.852,1.896c-1.896,2.657-6.544,4.175-9.485,4.175c-2.373,0-5.03-0.666-6.828-2.657
	c-0.666-0.662-1.045-1.14-1.518-1.14c-0.477,0-1.14,0.478-2.563,1.333c-1.806,1.136-4.652,2.464-8.063,2.464
	c-6.453,0-9.676-4.459-9.676-9.201c0-3.414,1.326-6.544,7.87-8.823c3.324-1.135,6.927-2.464,10.436-3.792
	c1.9-0.663,2.185-1.519,2.185-2.469l0.095-2.468c0.188-4.833-1.14-9.012-5.788-9.012c-2.657,0-4.647,1.423-5.026,4.179
	c-0.193,1.802-0.761,2.752-1.802,3.41c-1.332,0.855-3.989,1.711-6.07,1.711c-1.234,0-1.807-0.666-1.807-1.521
	c0-1.136,0.572-3.127,3.698-6.067c2.941-2.752,9.773-5.977,14.61-5.977c7.494,0,12.143,3.513,11.765,11.854L232.686,108.707z
	 M223.39,105.477c0-1.044-0.288-1.612-0.761-1.612c-0.761,0-2.468,0.478-4.171,1.14c-2.657,0.95-5.125,2.279-5.125,6.355
	c0,2.468,1.707,5.503,5.311,5.503c3.413,0,4.458-2.278,4.553-4.558L223.39,105.477z"/>
<path fill="#C3A204" d="M272.051,83.376c1.229,1.14,1.9,2.653,1.9,4.838c0,3.031-1.617,4.454-2.374,4.454
	c-0.666,0-1.14-0.189-1.806-1.04c-2.085-2.748-4.932-5.788-8.63-5.788c-5.409,0-11.007,5.314-11.007,14.229
	c0,7.684,4.939,14.992,13.569,14.992c6.162,0,8.347-2.278,10.247-5.03c0.851-0.095,1.896,0.567,1.986,1.707
	c-3.414,7.684-10.72,10.341-16.696,10.341c-5.03,0-9.958-1.995-13.183-5.121c-3.319-3.229-5.504-8.16-5.504-13.66
	c0-11.098,8.063-21.249,23.339-21.249C266.642,82.048,269.394,82.426,272.051,83.376"/>
<path fill="#C3A204" d="M290.453,84.989c0,1.14,0.189,1.612,0.852,1.612c3.315-2.464,7.4-4.553,12.143-4.553
	c8.161,0,12.143,5.216,12.143,13.277v14.138c0,7.018,0.378,8.062,3.604,8.539l2.184,0.279c0.852,0.667,0.762,2.374-0.189,2.757
	c-3.985-0.193-7.21-0.288-10.723-0.288c-3.131,0-6.355,0.095-9.675,0.288c-0.757-0.383-0.852-2.09-0.189-2.757l1.424-0.188
	c3.225-0.568,3.603-1.612,3.603-8.63V96.091c0-4.558-1.99-8.354-7.589-8.354c-3.13,0-5.311,1.521-6.445,2.756
	c-1.045,1.136-1.14,2.559-1.14,6.261v12.71c0,7.018,0.379,8.062,3.6,8.63l1.423,0.188c0.666,0.667,0.576,2.374-0.189,2.757
	c-3.315-0.193-6.544-0.288-10.053-0.288c-3.035,0-6.261,0.095-10.242,0.288c-0.757-0.383-0.855-2.09-0.189-2.757l2.082-0.279
	c3.229-0.478,3.607-1.521,3.607-8.539V68.766c0-6.355-0.095-7.018-2.181-8.251l-1.328-0.855c-0.567-0.379-0.667-1.896,0-2.181
	c3.697-1.04,8.539-3.035,12.426-4.554c0.568-0.094,1.14,0.284,1.329,0.758c-0.189,3.796-0.284,9.678-0.284,13.759V84.989z"/>
<path fill="#C3A204" d="M334.083,98.267c-1.802,0-1.99,0.099-1.99,1.233c0,8.54,5.882,15.372,14.326,15.372
	c3.788,0,6.923-1.234,9.103-4.743c0.95-0.288,1.995,0.662,2.09,1.514c-3.229,7.589-10.246,10.436-16.033,10.436
	c-10.999,0-18.309-8.16-18.309-18.971c0-10.719,7.31-21.06,20.02-21.06c7.018,0,14.228,4.553,14.228,12.809
	c0,0.852-0.095,1.423-0.473,2.18c-0.572,0.852-2.756,1.23-6.549,1.23H334.083z M342.812,94.474c2.752,0,3.986-0.283,4.648-0.662
	c0.567-0.378,0.95-1.144,0.95-1.995c0-3.414-2.181-6.166-6.265-6.166c-6.355,0-9.296,6.166-9.296,8.161
	c0,0.379,0.197,0.662,1.328,0.662H342.812z"/>
<path fill="#C3A204" d="M365.2,95.519c0-4.273,0-5.405-2.373-6.828l-1.14-0.666c-0.283-0.379-0.283-1.711,0.095-2.185
	c4.08-1.324,9.106-3.414,11.953-5.121c0.567,0,1.14,0.284,1.329,0.852c-0.095,1.806-0.189,3.418-0.189,4.27
	c0,0.667,0.378,1.14,0.95,1.14c2.937-2.086,6.067-4.932,9.296-4.932c3.315,0,5.216,2.18,5.216,4.647
	c0,3.698-2.748,5.504-5.311,5.504c-0.95,0-1.806-0.288-2.566-0.761c-2.365-1.612-3.978-1.802-4.55-1.802
	c-2.184,0-2.751,2.18-2.751,6.828v12.998c0,7.018,0.382,8.062,3.701,8.44l3.698,0.378c0.662,0.667,0.567,2.374-0.193,2.757
	c-5.692-0.193-8.913-0.288-12.422-0.288c-3.135,0-6.265,0.095-9.872,0.288c-0.749-0.383-0.848-2.09-0.189-2.757l1.711-0.279
	c3.226-0.478,3.607-1.521,3.607-8.539V95.519z"/>
</svg>
